{
  "accessors": [
    {
      "bufferView": 2,
      "componentType": 5126,
      "count": 3512,
      "max": [
        119.5943374633789,
        30.882919311523438,
        171.8605194091797
      ],
      "min": [
        -195.91940307617188,
        -67.12434387207031,
        3.394904851913452
      ],
      "type": "VEC3"
    },
    {
      "bufferView": 2,
      "byteOffset": 42144,
      "componentType": 5126,
      "count": 3512,
      "max": [
        1.0,
        1.0,
        1.0
      ],
      "min": [
        -1.0,
        -1.0,
        -1.0
      ],
      "type": "VEC3"
    },
    {
      "bufferView": 3,
      "componentType": 5126,
      "count": 3512,
      "max": [
        1.0,
        1.0,
        1.0,
        1.0
      ],
      "min": [
        -1.0,
        -1.0,
        -1.0,
        -1.0
      ],
      "type": "VEC4"
    },
    {
      "bufferView": 1,
      "componentType": 5126,
      "count": 3512,
      "max": [
        0.9953844547271729,
        0.9794267416000366
      ],
      "min": [
        0.0013877241872251034,
        0.0013862934429198503
      ],
      "type": "VEC2"
    },
    {
      "bufferView": 0,
      "componentType": 5125,
      "count": 10023,
      "type": "SCALAR"
    },
    {
      "bufferView": 2,
      "byteOffset": 84288,
      "componentType": 5126,
      "count": 2824,
      "max": [
        116.2630615234375,
        26.557138442993164,
        167.91976928710938
      ],
      "min": [
        -192.588134765625,
        -26.557146072387695,
        -2.3791885375976563
      ],
      "type": "VEC3"
    },
    {
      "bufferView": 2,
      "byteOffset": 118176,
      "componentType": 5126,
      "count": 2824,
      "max": [
        1.0,
        1.0,
        1.0
      ],
      "min": [
        -1.0,
        -1.0,
        -1.0
      ],
      "type": "VEC3"
    },
    {
      "bufferView": 3,
      "byteOffset": 56192,
      "componentType": 5126,
      "count": 2824,
      "max": [
        1.0,
        1.0,
        0.9288884997367859,
        1.0
      ],
      "min": [
        -1.0,
        -1.0,
        -1.0,
        -1.0
      ],
      "type": "VEC4"
    },
    {
      "bufferView": 1,
      "byteOffset": 28096,
      "componentType": 5126,
      "count": 2824,
      "max": [
        0.9829962253570557,
        0.9948928952217102
      ],
      "min": [
        0.0013877241872251034,
        0.34900331497192383
      ],
      "type": "VEC2"
    },
    {
      "bufferView": 0,
      "byteOffset": 40092,
      "componentType": 5125,
      "count": 12048,
      "type": "SCALAR"
    },
    {
      "bufferView": 2,
      "byteOffset": 152064,
      "componentType": 5126,
      "count": 4570,
      "max": [
        125.58695983886719,
        37.76282501220703,
        166.76214599609375
      ],
      "min": [
        -201.9120330810547,
        -84.75111389160156,
        -0.16187337040901184
      ],
      "type": "VEC3"
    },
    {
      "bufferView": 2,
      "byteOffset": 206904,
      "componentType": 5126,
      "count": 4570,
      "max": [
        1.0,
        1.0,
        1.0
      ],
      "min": [
        -1.0,
        -1.0,
        -1.0
      ],
      "type": "VEC3"
    },
    {
      "bufferView": 3,
      "byteOffset": 101376,
      "componentType": 5126,
      "count": 4570,
      "max": [
        1.0,
        1.0,
        0.9999999403953552,
        1.0
      ],
      "min": [
        -1.0,
        -1.0,
        -1.0,
        -1.0
      ],
      "type": "VEC4"
    },
    {
      "bufferView": 1,
      "byteOffset": 50688,
      "componentType": 5126,
      "count": 4570,
      "max": [
        0.998735785484314,
        0.997150182723999
      ],
      "min": [
        0.006425647530704737,
        0.006424224004149437
      ],
      "type": "VEC2"
    },
    {
      "bufferView": 0,
      "byteOffset": 88284,
      "componentType": 5125,
      "count": 17688,
      "type": "SCALAR"
    },
    {
      "bufferView": 2,
      "byteOffset": 261744,
      "componentType": 5126,
      "count": 5347,
      "max": [
        159.7939453125,
        89.10202026367188,
        -32.69927215576172
      ],
      "min": [
        -159.79429626464844,
        -82.42204284667969,
        -157.003173828125
      ],
      "type": "VEC3"
    },
    {
      "bufferView": 2,
      "byteOffset": 325908,
      "componentType": 5126,
      "count": 5347,
      "max": [
        1.0,
        1.0,
        1.0
      ],
      "min": [
        -1.0,
        -1.0,
        -1.0
      ],
      "type": "VEC3"
    },
    {
      "bufferView": 3,
      "byteOffset": 174496,
      "componentType": 5126,
      "count": 5347,
      "max": [
        1.0,
        1.0,
        1.0,
        1.0
      ],
      "min": [
        -1.0,
        -1.0,
        -1.0,
        -1.0
      ],
      "type": "VEC4"
    },
    {
      "bufferView": 1,
      "byteOffset": 87248,
      "componentType": 5126,
      "count": 5347,
      "max": [
        1.829633116722107,
        0.9877660274505615
      ],
      "min": [
        0.03161529451608658,
        0.05680351331830025
      ],
      "type": "VEC2"
    },
    {
      "bufferView": 0,
      "byteOffset": 159036,
      "componentType": 5125,
      "count": 17406,
      "type": "SCALAR"
    }
  ],
  "asset": {
    "extras": {
      "author": "VassKacsoHunor (https://sketchfab.com/VassKacsoHunor)",
      "license": "CC-BY-4.0 (http://creativecommons.org/licenses/by/4.0/)",
      "source": "https://sketchfab.com/3d-models/quad-night-vision-goggle-632dac677c02447abf205f503c50613e",
      "title": "Quad Night Vision Goggle"
    },
    "generator": "Sketchfab-12.67.0",
    "version": "2.0"
  },
  "bufferViews": [
    {
      "buffer": 0,
      "byteLength": 228660,
      "name": "floatBufferViews",
      "target": 34963
    },
    {
      "buffer": 0,
      "byteLength": 130024,
      "byteOffset": 228660,
      "byteStride": 8,
      "name": "floatBufferViews",
      "target": 34962
    },
    {
      "buffer": 0,
      "byteLength": 390072,
      "byteOffset": 358684,
      "byteStride": 12,
      "name": "floatBufferViews",
      "target": 34962
    },
    {
      "buffer": 0,
      "byteLength": 260048,
      "byteOffset": 748756,
      "byteStride": 16,
      "name": "floatBufferViews",
      "target": 34962
    }
  ],
  "buffers": [
    {
      "byteLength": 1008804,
      "uri": "scene.bin"
    }
  ],
  "images": [
    {
      "uri": "textures/Scene_-_Root_baseColor.png"
    },
    {
      "uri": "textures/Scene_-_Root_metallicRoughness.png"
    },
    {
      "uri": "textures/Scene_-_Root_normal.png"
    }
  ],
  "materials": [
    {
      "alphaMode": "BLEND",
      "doubleSided": true,
      "name": "Scene_-_Root",
      "normalTexture": {
        "index": 2
      },
      "occlusionTexture": {
        "index": 1,
        "strength": 0.8475170062410665
      },
      "pbrMetallicRoughness": {
        "baseColorTexture": {
          "index": 0
        },
        "metallicRoughnessTexture": {
          "index": 1
        }
      }
    }
  ],
  "meshes": [
    {
      "name": "Slab_LP__0",
      "primitives": [
        {
          "attributes": {
            "NORMAL": 1,
            "POSITION": 0,
            "TANGENT": 2,
            "TEXCOORD_0": 3
          },
          "indices": 4,
          "material": 0,
          "mode": 4
        }
      ]
    },
    {
      "name": "Glass_LP__0",
      "primitives": [
        {
          "attributes": {
            "NORMAL": 6,
            "POSITION": 5,
            "TANGENT": 7,
            "TEXCOORD_0": 8
          },
          "indices": 9,
          "material": 0,
          "mode": 4
        }
      ]
    },
    {
      "name": "Body_LP__0",
      "primitives": [
        {
          "attributes": {
            "NORMAL": 11,
            "POSITION": 10,
            "TANGENT": 12,
            "TEXCOORD_0": 13
          },
          "indices": 14,
          "material": 0,
          "mode": 4
        }
      ]
    },
    {
      "name": "Small_LP__0",
      "primitives": [
        {
          "attributes": {
            "NORMAL": 16,
            "POSITION": 15,
            "TANGENT": 17,
            "TEXCOORD_0": 18
          },
          "indices": 19,
          "material": 0,
          "mode": 4
        }
      ]
    }
  ],
  "nodes": [
    {
      "children": [
        1
      ],
      "matrix": [
        36.85680389404297,
        0.0,
        0.0,
        0.0,
        0.0,
        8.183854459452126e-15,
        -36.85680389404297,
        0.0,
        0.0,
        36.85680389404297,
        8.183854459452126e-15,
        0.0,
        0.0,
        0.0,
        0.0,
        1.0
      ],
      "name": "Sketchfab_model"
    },
    {
      "children": [
        2
      ],
      "matrix": [
        1.0,
        0.0,
        0.0,
        0.0,
        0.0,
        0.0,
        1.0,
        0.0,
        0.0,
        -1.0,
        0.0,
        0.0,
        0.0,
        0.0,
        0.0,
        1.0
      ],
      "name": "134262d1f8a94d5490226436222b7969.fbx"
    },
    {
      "children": [
        3,
        6,
        9,
        12
      ],
      "name": "RootNode"
    },
    {
      "children": [
        4
      ],
      "matrix": [
        2.5400000595254824e-05,
        0.0,
        0.0,
        0.0,
        0.0,
        -2.5400000595254485e-05,
        4.138185407401821e-12,
        0.0,
        0.0,
        -4.2178907851531436e-12,
        -2.5889228709274557e-05,
        0.0,
        0.0,
        -0.0032060679513961077,
        7.065558422318762e-26,
        1.0
      ],
      "name": "Slab_LP"
    },
    {
      "children": [
        5
      ],
      "matrix": [
        1.0,
        0.0,
        -0.0,
        0.0,
        0.0,
        1.0,
        0.0,
        0.0,
        0.0,
        0.0,
        1.0,
        0.0,
        38.16253662109375,
        3.6154372082819464e-06,
        -81.12796020507813,
        1.0
      ],
      "name": "Object_4"
    },
    {
      "mesh": 0,
      "name": "Slab_LP__0"
    },
    {
      "children": [
        7
      ],
      "matrix": [
        2.5400000595254824e-05,
        0.0,
        0.0,
        0.0,
        0.0,
        -2.5400000595254485e-05,
        4.138185407401821e-12,
        0.0,
        0.0,
        -4.2178907851531436e-12,
        -2.5889228709274557e-05,
        0.0,
        0.0,
        -0.0032060679513961077,
        7.065558422318762e-26,
        1.0
      ],
      "name": "Glass_LP"
    },
    {
      "children": [
        8
      ],
      "matrix": [
        1.0,
        0.0,
        -0.0,
        0.0,
        0.0,
        1.0,
        0.0,
        0.0,
        0.0,
        0.0,
        1.0,
        0.0,
        38.16253662109375,
        3.6154378904029727e-06,
        -81.12796020507813,
        1.0
      ],
      "name": "Object_7"
    },
    {
      "mesh": 1,
      "name": "Glass_LP__0"
    },
    {
      "children": [
        10
      ],
      "matrix": [
        2.5400000595254824e-05,
        0.0,
        0.0,
        0.0,
        0.0,
        -2.54000005952548e-05,
        1.1102692916131607e-12,
        0.0,
        0.0,
        -1.131654131725794e-12,
        -2.588922870927488e-05,
        0.0,
        0.0,
        -0.0032060679513961077,
        0.0,
        1.0
      ],
      "name": "Body_LP"
    },
    {
      "children": [
        11
      ],
      "matrix": [
        1.0,
        0.0,
        -0.0,
        0.0,
        0.0,
        1.0,
        0.0,
        0.0,
        0.0,
        0.0,
        1.0,
        0.0,
        38.16253662109375,
        3.6154378904029727e-06,
        -81.12796020507813,
        1.0
      ],
      "name": "Object_10"
    },
    {
      "mesh": 2,
      "name": "Body_LP__0"
    },
    {
      "children": [
        13
      ],
      "matrix": [
        2.5400000595254824e-05,
        0.0,
        0.0,
        0.0,
        0.0,
        5.639933097268917e-21,
        -2.5400000595254824e-05,
        0.0,
        0.0,
        2.5400000595254824e-05,
        5.639933097268917e-21,
        0.0,
        0.0,
        0.0,
        0.0,
        1.0
      ],
      "name": "Small_LP"
    },
    {
      "mesh": 3,
      "name": "Small_LP__0"
    }
  ],
  "samplers": [
    {
      "magFilter": 9729,
      "minFilter": 9987,
      "wrapS": 10497,
      "wrapT": 10497
    }
  ],
  "scene": 0,
  "scenes": [
    {
      "name": "Sketchfab_Scene",
      "nodes": [
        0
      ]
    }
  ],
  "textures": [
    {
      "sampler": 0,
      "source": 0
    },
    {
      "sampler": 0,
      "source": 1
    },
    {
      "sampler": 0,
      "source": 2
    }
  ]
}
