{
  "accessors": [
    {
      "bufferView": 2,
      "componentType": 5126,
      "count": 2327,
      "max": [
        0.02430921047925949,
        0.0831453874707222,
        0.024309204891324043
      ],
      "min": [
        -0.024309204891324043,
        -0.09793716669082642,
        -0.02430921234190464
      ],
      "type": "VEC3"
    },
    {
      "bufferView": 2,
      "byteOffset": 27924,
      "componentType": 5126,
      "count": 2327,
      "max": [
        1.0,
        1.0,
        1.0
      ],
      "min": [
        -1.0,
        -1.0,
        -1.0
      ],
      "type": "VEC3"
    },
    {
      "bufferView": 3,
      "componentType": 5126,
      "count": 2327,
      "max": [
        0.9996291995048523,
        1.0,
        0.9834469556808472,
        1.0
      ],
      "min": [
        -1.0,
        -1.0,
        -0.9838537573814392,
        -1.0
      ],
      "type": "VEC4"
    },
    {
      "bufferView": 1,
      "componentType": 5126,
      "count": 2327,
      "max": [
        0.9951988458633423,
        0.9985026717185974
      ],
      "min": [
        0.0014554171357303858,
        0.0014954673824831843
      ],
      "type": "VEC2"
    },
    {
      "bufferView": 1,
      "byteOffset": 18616,
      "componentType": 5126,
      "count": 2327,
      "max": [
        0.9951988458633423,
        0.9985026717185974
      ],
      "min": [
        0.0014554171357303858,
        0.0014954673824831843
      ],
      "type": "VEC2"
    },
    {
      "bufferView": 1,
      "byteOffset": 37232,
      "componentType": 5126,
      "count": 2327,
      "max": [
        0.9951988458633423,
        0.9985026717185974
      ],
      "min": [
        0.0014554171357303858,
        0.0014954673824831843
      ],
      "type": "VEC2"
    },
    {
      "bufferView": 0,
      "componentType": 5125,
      "count": 11202,
      "type": "SCALAR"
    },
    {
      "bufferView": 2,
      "byteOffset": 55848,
      "componentType": 5126,
      "count": 48,
      "max": [
        0.02107810415327549,
        -0.09679138660430908,
        0.021078098565340042
      ],
      "min": [
        -0.02107810229063034,
        -0.09679140150547028,
        -0.021078109741210938
      ],
      "type": "VEC3"
    },
    {
      "bufferView": 2,
      "byteOffset": 56424,
      "componentType": 5126,
      "count": 48,
      "max": [
        7.069498337841651e-07,
        -1.0,
        1.369422534480691e-06
      ],
      "min": [
        -7.06949890627584e-07,
        -1.0,
        -1.3694228755412041e-06
      ],
      "type": "VEC3"
    },
    {
      "bufferView": 3,
      "byteOffset": 37232,
      "componentType": 5126,
      "count": 48,
      "max": [
        -0.9807851910591125,
        9.605271316104336e-07,
        -0.19508974254131317,
        1.0
      ],
      "min": [
        -0.9807854294776917,
        -8.549683343517245e-07,
        -0.19509108364582062,
        1.0
      ],
      "type": "VEC4"
    },
    {
      "bufferView": 1,
      "byteOffset": 55848,
      "componentType": 5126,
      "count": 48,
      "max": [
        0.9998998641967773,
        0.9998999834060669
      ],
      "min": [
        9.997999586630613e-05,
        9.997999586630613e-05
      ],
      "type": "VEC2"
    },
    {
      "bufferView": 1,
      "byteOffset": 56232,
      "componentType": 5126,
      "count": 48,
      "max": [
        0.9998998641967773,
        0.9998999834060669
      ],
      "min": [
        9.997999586630613e-05,
        9.997999586630613e-05
      ],
      "type": "VEC2"
    },
    {
      "bufferView": 1,
      "byteOffset": 56616,
      "componentType": 5126,
      "count": 48,
      "max": [
        0.9998998641967773,
        0.9998999834060669
      ],
      "min": [
        9.997999586630613e-05,
        9.997999586630613e-05
      ],
      "type": "VEC2"
    },
    {
      "bufferView": 0,
      "byteOffset": 44808,
      "componentType": 5125,
      "count": 48,
      "type": "SCALAR"
    }
  ],
  "asset": {
    "extras": {
      "author": "donnichols (https://sketchfab.com/donnichols)",
      "license": "CC-BY-4.0 (http://creativecommons.org/licenses/by/4.0/)",
      "source": "https://sketchfab.com/3d-models/flashlight-98f0519806ff4c4bbfcb9c1c7a922896",
      "title": "Flashlight"
    },
    "generator": "Sketchfab-13.40.0",
    "version": "2.0"
  },
  "bufferViews": [
    {
      "buffer": 0,
      "byteLength": 45000,
      "name": "floatBufferViews",
      "target": 34963
    },
    {
      "buffer": 0,
      "byteLength": 57000,
      "byteOffset": 45000,
      "byteStride": 8,
      "name": "floatBufferViews",
      "target": 34962
    },
    {
      "buffer": 0,
      "byteLength": 57000,
      "byteOffset": 102000,
      "byteStride": 12,
      "name": "floatBufferViews",
      "target": 34962
    },
    {
      "buffer": 0,
      "byteLength": 38000,
      "byteOffset": 159000,
      "byteStride": 16,
      "name": "floatBufferViews",
      "target": 34962
    }
  ],
  "buffers": [
    {
      "byteLength": 197000,
      "uri": "scene.bin"
    }
  ],
  "extensionsUsed": [
    "KHR_materials_transmission"
  ],
  "images": [
    {
      "uri": "textures/Main_baseColor.png"
    },
    {
      "uri": "textures/Main_metallicRoughness.png"
    },
    {
      "uri": "textures/Main_normal.png"
    },
    {
      "uri": "textures/Glass_baseColor.png"
    },
    {
      "uri": "textures/Glass_metallicRoughness.png"
    },
    {
      "uri": "textures/Glass_normal.png"
    }
  ],
  "materials": [
    {
      "doubleSided": true,
      "name": "Main",
      "normalTexture": {
        "index": 2
      },
      "occlusionTexture": {
        "index": 1
      },
      "pbrMetallicRoughness": {
        "baseColorTexture": {
          "index": 0
        },
        "metallicRoughnessTexture": {
          "index": 1
        }
      }
    },
    {
      "alphaMode": "BLEND",
      "doubleSided": true,
      "extensions": {
        "KHR_materials_transmission": {
          "transmissionFactor": 0.08857364136081158
        }
      },
      "name": "Glass",
      "normalTexture": {
        "index": 5
      },
      "occlusionTexture": {
        "index": 4
      },
      "pbrMetallicRoughness": {
        "baseColorFactor": [
          1.0,
          1.0,
          1.0,
          0.9114263586391884
        ],
        "baseColorTexture": {
          "index": 3
        },
        "metallicRoughnessTexture": {
          "index": 4
        }
      }
    }
  ],
  "meshes": [
    {
      "name": "Body_Main_0",
      "primitives": [
        {
          "attributes": {
            "NORMAL": 1,
            "POSITION": 0,
            "TANGENT": 2,
            "TEXCOORD_0": 3,
            "TEXCOORD_1": 4,
            "TEXCOORD_2": 5
          },
          "indices": 6,
          "material": 0,
          "mode": 4
        }
      ]
    },
    {
      "name": "Body_Glass_0",
      "primitives": [
        {
          "attributes": {
            "NORMAL": 8,
            "POSITION": 7,
            "TANGENT": 9,
            "TEXCOORD_0": 10,
            "TEXCOORD_1": 11,
            "TEXCOORD_2": 12
          },
          "indices": 13,
          "material": 1,
          "mode": 4
        }
      ]
    }
  ],
  "nodes": [
    {
      "children": [
        1
      ],
      "matrix": [
        1.0,
        0.0,
        0.0,
        0.0,
        0.0,
        2.220446049250313e-16,
        -1.0,
        0.0,
        0.0,
        1.0,
        2.220446049250313e-16,
        0.0,
        0.0,
        0.0,
        0.0,
        1.0
      ],
      "name": "Sketchfab_model"
    },
    {
      "children": [
        2
      ],
      "matrix": [
        0.009999999776482582,
        0.0,
        0.0,
        0.0,
        0.0,
        0.0,
        0.009999999776482582,
        0.0,
        0.0,
        -0.009999999776482582,
        0.0,
        0.0,
        0.0,
        0.0,
        0.0,
        1.0
      ],
      "name": "flashlight0417.fbx"
    },
    {
      "children": [
        3
      ],
      "name": "RootNode"
    },
    {
      "children": [
        4,
        5
      ],
      "matrix": [
        100.0,
        0.0,
        0.0,
        0.0,
        -0.0,
        -1.629206793918314e-05,
        -99.99999999999868,
        0.0,
        0.0,
        99.99999999999868,
        -1.629206793918314e-05,
        0.0,
        -8.475035429000854e-08,
        4.021316613034287e-09,
        2.2997338078312168e-07,
        1.0
      ],
      "name": "Body"
    },
    {
      "mesh": 0,
      "name": "Body_Main_0"
    },
    {
      "mesh": 1,
      "name": "Body_Glass_0"
    }
  ],
  "samplers": [
    {
      "magFilter": 9729,
      "minFilter": 9987,
      "wrapS": 10497,
      "wrapT": 10497
    }
  ],
  "scene": 0,
  "scenes": [
    {
      "name": "Sketchfab_Scene",
      "nodes": [
        0
      ]
    }
  ],
  "textures": [
    {
      "sampler": 0,
      "source": 0
    },
    {
      "sampler": 0,
      "source": 1
    },
    {
      "sampler": 0,
      "source": 2
    },
    {
      "sampler": 0,
      "source": 3
    },
    {
      "sampler": 0,
      "source": 4
    },
    {
      "sampler": 0,
      "source": 5
    }
  ]
}
